# xmcd
# 
# Track frame offsets:
#     150
#     23925
#     47178
#     67719
#     88008
# 
# Disc length: 1450
# 
# Revision: 0
# Processed by: cddbd v1.5.2PL0 Copyright (c) Steve Scherf et al.
# Submitted via: fre:ac v1.0.17
# 
DISCID=3705a805
DTITLE=風間ヤスヒロ - One World
DYEAR=2014
DGENRE=JPop
TTITLE0=逃避行
TTITLE1=絹の夜
TTITLE2=夕なぎ
TTITLE3=海風と媚薬
TTITLE4=ユメノツヅキ
EXTD=
EXTT0=
EXTT1=
EXTT2=
EXTT3=
EXTT4=
PLAYORDER=
